# xmcd
#
# Track frame offsets:
#	150
#	16547
#	35302
#	57760
#	74145
#	93070
#	110480
#	133935
#	152762
#	188590
#	195150
#
# Disc length: 2761 seconds
#
# Revision: 1
# Processed by: cddbd v1.5.2PL0 Copyright (c) Steve Scherf et al.
# Submitted via: audiograbber 1.83.01
#
DISCID=840ac70b
DTITLE=Meters - Fire On The Bayou
DYEAR=1975
DGENRE=Oldies
TTITLE0=Out In The Country
TTITLE1=Fire On The Bayou
TTITLE2=Love Slip Upon Ya
TTITLE3=Talkin' 'Bout New Orleans
TTITLE4=They All Ask'd For You
TTITLE5=Can You Do Without?
TTITLE6=Liar
TTITLE7=You're A Friend Of Mine
TTITLE8=Middle Of The Road
TTITLE9=Running Fast
TTITLE10=Mardi Gras Mambo
EXTD=
EXTT0=
EXTT1=
EXTT2=
EXTT3=
EXTT4=
EXTT5=
EXTT6=
EXTT7=
EXTT8=
EXTT9=
EXTT10=
PLAYORDER=
